<svg width="100" height="100" viewBox="0 0 100 100" fill="none" xmlns="http://www.w3.org/2000/svg">
<path d="M50 0C22.4315 0 0 22.4315 0 50C0 77.5685 22.4315 100 50 100C77.5685 100 100 77.5685 100 50C100 22.4315 77.5704 0 50 0ZM72.3065 49.3676L52.1278 69.5407C38.2296 83.4389 17.7315 62.4407 31.3806 48.7907L51.5583 28.6176C59.3672 20.7975 71.2157 32.6454 63.4028 40.4648L43.2287 60.6398C41.2666 62.6019 38.3209 59.6553 40.2831 57.6943L60.4572 37.5193C64.3671 33.6094 58.4151 27.648 54.5038 31.5647L34.326 51.7379C24.5519 61.511 39.4118 76.3638 49.1816 66.5953L69.3593 46.4221C71.2029 44.5779 74.1518 47.5245 72.306 49.3677L72.3065 49.3676Z" fill="#C5BBFF"/>
</svg>
